<svg aria-hidden="true" style="position: absolute; width: 0; height: 0; overflow: hidden;" version="1.1" xmlns="http://www.w3.org/2000/svg" xmlns:xlink="http://www.w3.org/1999/xlink">
    <defs>
        <symbol id="icon-icon1" viewBox="0 0 73 32">
            <path fill="#fd0b7d" style="fill: var(--color1, #fd0b7d)" d="M72.035 17.297c0 1.592-2.48 2.883-5.541 2.883h-60.954c-3.060 0-5.541-1.291-5.541-2.882 0-1.593 2.48-2.883 5.541-2.883h60.953c3.060 0 5.541 1.29 5.541 2.883zM13.853 23.063h-8.313c0 4.777 7.442 8.649 16.623 8.649h27.706c9.181 0 16.624-3.872 16.624-8.649h-52.64zM11.083 11.532h-5.542v-5.766c0-3.184 4.962-5.766 11.081-5.766h38.789c6.121 0 11.082 2.581 11.082 5.766v5.766h-55.41zM55.411 7.207c0 0.795 1.241 1.441 2.77 1.441s2.77-0.646 2.77-1.441-1.24-1.442-2.77-1.442c-1.53 0-2.77 0.646-2.77 1.442zM44.329 4.325c0 0.795 1.241 1.441 2.77 1.441s2.77-0.646 2.77-1.441c0-0.795-1.241-1.442-2.77-1.442s-2.77 0.646-2.77 1.442zM33.247 7.207c0 0.795 1.241 1.441 2.77 1.441s2.77-0.646 2.77-1.441c0-0.795-1.241-1.442-2.77-1.442s-2.77 0.646-2.77 1.442zM22.164 4.325c0 0.795 1.241 1.441 2.77 1.441s2.771-0.646 2.771-1.441-1.241-1.442-2.77-1.442c-1.53 0-2.77 0.646-2.77 1.442zM11.083 7.207c0 0.795 1.24 1.441 2.77 1.441s2.77-0.646 2.77-1.441-1.241-1.442-2.77-1.442c-1.53 0-2.77 0.646-2.77 1.442z"></path>
        </symbol>
        <symbol id="icon-icon2" viewBox="0 0 68 32">
            <path fill="#fd0b7d" style="fill: var(--color1, #fd0b7d)" d="M18.58 17.658l9.818-4.894-24.338-12.134c-5.413 2.697-5.413 7.083 0 9.781l14.52 7.248zM42.121 14.519c5.291 1.236 12.768 0.363 18.285-2.387 6.644-3.312 7.91-8.044 2.828-10.578-5.101-2.533-14.608-1.902-21.234 1.411-5.517 2.75-7.251 6.478-4.788 9.115-7.72 3.84-33.881 16.882-33.881 16.882l4.91 2.448 23.869-11.9 23.872 11.9 4.909-2.448-23.87-11.901 5.101-2.544z"></path>
        </symbol>
        <symbol id="icon-icon3" viewBox="0 0 37 32">
            <path fill="#fd0b7d" style="fill: var(--color1, #fd0b7d)" d="M0 32v-32h9.545v32h-9.545zM13.126 32v-26.075h9.546v26.075h-9.545zM26.251 32v-21.333h9.546v21.333h-9.545z"></path>
        </symbol>
        <symbol id="icon-commas" viewBox="0 0 34 32">
            <path fill="#d6d6d6" style="fill: var(--color1, #d6d6d6)" d="M34.415 5.928c-5.096 2.501-7.644 5.438-7.644 8.812 2.172 0.25 3.969 1.135 5.388 2.657s2.13 3.281 2.13 5.281c0 2.125-0.689 3.917-2.068 5.375s-3.112 2.188-5.201 2.188c-2.339 0-4.364-0.948-6.077-2.844-1.713-1.895-2.569-4.197-2.569-6.905 0-8.125 4.553-14.479 13.659-19.063l2.38 4.5zM16.066 5.928c-5.138 2.501-7.707 5.438-7.707 8.812 2.214 0.25 4.031 1.135 5.451 2.657s2.13 3.281 2.13 5.281c0 2.125-0.7 3.917-2.099 5.375s-3.144 2.188-5.232 2.188c-2.339 0-4.354-0.948-6.046-2.844-1.691-1.895-2.537-4.197-2.537-6.905 0-8.125 4.532-14.479 13.596-19.063l2.444 4.5z"></path>
        </symbol>
        <symbol id="icon-point-on" viewBox="0 0 32 32">
            <path d="M0 0h32v32h-32z"></path>
        </symbol>
        <symbol id="icon-point-off" viewBox="0 0 32 32">
            <path d="M0 0h32v32h-32z"></path>
        </symbol>
    </defs>
</svg>